<?xml version="1.0" encoding="UTF-8"?>
<svg width="58px" height="58px" viewBox="0 0 58 58" version="1.1" xmlns="http://www.w3.org/2000/svg" xmlns:xlink="http://www.w3.org/1999/xlink">
    <title>学习中心</title>
    <defs>
        <rect id="path-1" x="0" y="0" width="50" height="50" rx="6"></rect>
        <filter x="-14.0%" y="-10.0%" width="128.0%" height="128.0%" filterUnits="objectBoundingBox" id="filter-2">
            <feOffset dx="0" dy="2" in="SourceAlpha" result="shadowOffsetOuter1"></feOffset>
            <feGaussianBlur stdDeviation="2" in="shadowOffsetOuter1" result="shadowBlurOuter1"></feGaussianBlur>
            <feColorMatrix values="0 0 0 0 0.266666667   0 0 0 0 0.360784314   0 0 0 0 0.525490196  0 0 0 0.4 0" type="matrix" in="shadowBlurOuter1"></feColorMatrix>
        </filter>
        <rect id="path-3" x="0" y="0" width="50" height="50" rx="6"></rect>
        <linearGradient x1="83.4391276%" y1="97.7410179%" x2="83.4391276%" y2="23.5818614%" id="linearGradient-5">
            <stop stop-color="#FFFFFF" stop-opacity="0.1" offset="0%"></stop>
            <stop stop-color="#FFFFFF" stop-opacity="0.5" offset="100%"></stop>
        </linearGradient>
    </defs>
    <g id="信贷" stroke="none" stroke-width="1" fill="none" fill-rule="evenodd">
        <g id="首页-客户经理营销" transform="translate(-875.000000, -860.000000)">
            <g id="菜单栏" transform="translate(180.000000, 862.000000)">
                <g id="学习中心" transform="translate(699.000000, 0.000000)">
                    <g id="矩形">
                        <use fill="black" fill-opacity="1" filter="url(#filter-2)" xlink:href="#path-1"></use>
                        <use fill="#FFFFFF" fill-rule="evenodd" xlink:href="#path-1"></use>
                    </g>
                    <g id="编组-14">
                        <mask id="mask-4" fill="white">
                            <use xlink:href="#path-3"></use>
                        </mask>
                        <use id="形状结合" fill="#4D85F6" xlink:href="#path-3"></use>
                        <path d="M40.9992239,15.7318594 C40.9495687,13.1361825 38.8329782,11.044942 36.2100106,11.0000028 L28.3907286,11.0000028 C27.8962415,11.0599084 27.4481386,11.3176659 27.1508028,11.7132347 C26.7753848,12.2543235 26.1629737,12.5872281 25.5001516,12.610523 C24.8349011,12.5884124 24.219628,12.255515 23.8417509,11.7132347 C23.5250022,11.2653505 23.0069945,10.9990104 22.4545839,11.0000028 L14.5965543,11.0000028 C11.9752338,11.1559472 9.94640664,13.3330142 10.0010794,15.9312568 L10.0010794,32.6576314 C10.0425957,35.2537535 12.1592027,37.3483997 14.7825432,37.3894853 L21.5556378,37.3894853 C21.8414006,37.4308247 22.1098085,37.550355 22.3305914,37.7345962 C23.1864722,38.5393046 24.319615,38.9916974 25.5001516,39.0000028 C26.6784737,38.9766209 27.8078993,38.5295379 28.6774615,37.7422653 C28.9150332,37.5164474 29.2315022,37.3900743 29.5609086,37.3894853 L36.403749,37.3894853 C39.0189586,37.2337486 41.0454749,35.0659253 40.9992239,32.4735723 L40.9992239,15.7318594 Z M25.4792729,36.0000028 C25.0762402,35.9942426 24.6898164,35.8404627 24.3953039,35.5686302 L24.005387,35.260507 C23.2533746,34.6978224 22.3363475,34.3922753 21.3929438,34.3900588 L14.7019699,34.3900588 C13.7087258,34.3121685 12.9567661,33.4705846 13.0019322,32.4873977 L13.0019322,15.8718515 C12.9738893,14.9003907 13.7212309,14.0775204 14.7019699,14.0000028 L21.767264,14.0000028 L21.8842391,14.1232521 C22.5769033,14.7888493 23.4438231,15.2503608 24.3875056,15.4558851 L24.3875056,25.9243725 C24.3875056,26.7752313 25.0857925,27.4649887 25.9471731,27.4649887 C26.8085537,27.4649887 27.5068407,26.7752313 27.5068407,25.9243725 L27.5068407,15.1400588 C28.1411137,14.8774119 28.7143305,14.4894498 29.1912817,14.0000028 L36.2565759,14.0000028 C36.7465351,14.0176147 37.2082795,14.2308931 37.5360994,14.5910109 C37.8639193,14.9511287 38.0297422,15.4272476 37.9956052,15.9103669 L37.9956052,32.4873977 C38.0443533,33.487501 37.268518,34.3397741 36.2565759,34.3977619 L29.5656019,34.3977619 C28.4699755,34.3952724 27.414016,34.8025891 26.6100319,35.5378179 C26.2978587,35.8153093 25.8986708,35.9784728 25.4792729,36.0000028 L25.4792729,36.0000028 Z" id="形状" fill="#FFFFFF" fill-rule="nonzero" mask="url(#mask-4)"></path>
                        <rect id="矩形" fill="url(#linearGradient-5)" mask="url(#mask-4)" x="26" y="12" width="13" height="23"></rect>
                    </g>
                </g>
            </g>
        </g>
    </g>
</svg>