<svg width="33" height="32" viewBox="0 0 33 32" fill="none" xmlns="http://www.w3.org/2000/svg">
<path d="M7.912 20.956C9.36267 20.956 10.3013 20.2573 10.728 18.86L12.792 19.82C12.504 20.812 11.9387 21.5907 11.096 22.156C10.2533 22.7213 9.208 23.004 7.96 23.004C6.76533 23.004 5.704 22.716 4.776 22.14C3.848 21.5747 3.128 20.7747 2.616 19.74C2.104 18.7053 1.848 17.5107 1.848 16.156C1.848 14.812 2.104 13.6227 2.616 12.588C3.128 11.5533 3.848 10.748 4.776 10.172C5.704 9.596 6.76533 9.308 7.96 9.308C9.208 9.308 10.2533 9.59067 11.096 10.156C11.9387 10.7107 12.504 11.484 12.792 12.476L10.728 13.452C10.3013 12.0547 9.36267 11.356 7.912 11.356C7.21867 11.356 6.6 11.5587 6.056 11.964C5.52267 12.3587 5.10667 12.9187 4.808 13.644C4.50933 14.3693 4.36 15.2067 4.36 16.156C4.36 17.1053 4.50933 17.9427 4.808 18.668C5.10667 19.3933 5.52267 19.9587 6.056 20.364C6.6 20.7587 7.21867 20.956 7.912 20.956ZM20.2714 23.004C19.0874 23.004 18.0367 22.716 17.1194 22.14C16.202 21.564 15.4874 20.7587 14.9754 19.724C14.4634 18.6893 14.2074 17.5 14.2074 16.156C14.2074 14.812 14.4634 13.6227 14.9754 12.588C15.4874 11.5533 16.202 10.748 17.1194 10.172C18.0367 9.596 19.0874 9.308 20.2714 9.308C21.4554 9.308 22.506 9.596 23.4234 10.172C24.3514 10.748 25.066 11.5533 25.5674 12.588C26.0794 13.6227 26.3354 14.812 26.3354 16.156C26.3354 17.5 26.0794 18.6893 25.5674 19.724C25.066 20.7587 24.3514 21.564 23.4234 22.14C22.506 22.716 21.4554 23.004 20.2714 23.004ZM20.2714 20.956C20.9647 20.956 21.5834 20.7587 22.1274 20.364C22.6714 19.9587 23.0927 19.3933 23.3914 18.668C23.69 17.932 23.8394 17.0947 23.8394 16.156C23.8394 15.2067 23.69 14.3693 23.3914 13.644C23.0927 12.9187 22.6714 12.3587 22.1274 11.964C21.5834 11.5587 20.9647 11.356 20.2714 11.356C19.578 11.356 18.9594 11.5587 18.4154 11.964C17.882 12.3587 17.466 12.9187 17.1674 13.644C16.8687 14.3693 16.7194 15.2067 16.7194 16.156C16.7194 17.0947 16.8687 17.932 17.1674 18.668C17.466 19.3933 17.882 19.9587 18.4154 20.364C18.9594 20.7587 19.578 20.956 20.2714 20.956ZM32.6435 25.084V26.396H27.8275V25.308L30.0995 23.148C30.4302 22.828 30.6542 22.5667 30.7715 22.364C30.8888 22.172 30.9475 21.9693 30.9475 21.756C30.9475 21.5107 30.8728 21.3133 30.7235 21.164C30.5848 21.0147 30.3928 20.94 30.1475 20.94C29.8702 20.94 29.6408 21.02 29.4595 21.18C29.2888 21.3293 29.1555 21.5693 29.0595 21.9L27.8755 21.196C28.0568 20.6733 28.3395 20.284 28.7235 20.028C29.1075 19.7613 29.6088 19.628 30.2275 19.628C30.9315 19.628 31.5022 19.8253 31.9395 20.22C32.3768 20.6147 32.5955 21.1213 32.5955 21.74C32.5955 22.1667 32.4728 22.5453 32.2275 22.876C31.9822 23.2173 31.5555 23.676 30.9475 24.252L30.0995 25.084H32.6435Z" fill="#35F3FF"/>
</svg>
